<?xml version="1.0" encoding="utf-8"?>
<!-- Generator: Adobe Illustrator 19.2.1, SVG Export Plug-In . SVG Version: 6.00 Build 0)  -->
<svg version="1.1" id="Layer_1" xmlns="http://www.w3.org/2000/svg" xmlns:xlink="http://www.w3.org/1999/xlink" x="0px" y="0px"
	 viewBox="0 0 960 560" style="enable-background:new 0 0 960 560;" xml:space="preserve">
<style type="text/css">
	.st0{fill:#597351;}
	.st1{fill:#2C3928;}
	.st2{fill:#A5ADBF;}
	.st3{fill:#687794;}
	.st4{fill:#71666C;}
	.st5{fill:#6F5965;}
	.st6{fill:#A998A1;}
	.st7{fill:#D4D1C9;}
	.st8{fill:#6F6959;}
	.st9{fill:#4A463C;}
	.st10{fill:#4A3C44;}
	.st11{fill:#FFFFFF;}
	.st12{font-family:'Avenir-Light';}
	.st13{font-size:101.8916px;}
	.st14{fill:none;stroke:#FFFFFF;stroke-miterlimit:10;}
</style>
<g>
	<g id="XMLID_1_">
		<g>
			<polygon class="st0" points="552.5,272.4 552.5,272.5 449.4,272.5 279.9,272.5 279.8,272.5 279.7,272.5 279.7,271.9 280.1,271.9 
				348.6,258 481.2,231.2 			"/>
			<polygon class="st1" points="552.5,216.8 552.5,272.4 481.2,231.2 481.6,231.1 			"/>
			<polygon class="st2" points="552.5,115.2 552.5,216.8 481.6,231.1 481.6,230.7 			"/>
			<polygon class="st3" points="552.5,115 552.5,115.2 481.6,230.7 481.6,231.1 481.2,231.2 359.6,161.1 469.3,134.9 			"/>
			<polygon class="st4" points="552.5,114.9 552.5,115 469.3,134.9 469.2,134.7 416.5,36.5 416.5,36.4 			"/>
			<polygon class="st2" points="552.5,272.5 416.4,351.1 416.4,351 449.4,272.5 			"/>
			<polygon class="st5" points="481.2,231.2 348.6,258 348.6,258 280.6,115.6 359.6,161.1 			"/>
			<polygon class="st6" points="386,102.9 416.2,36.2 416.5,36.4 416.5,36.5 469.2,134.7 469.3,134.9 359.6,161.1 			"/>
			<polygon class="st7" points="449.4,272.5 416.4,351 416.4,351.1 416.1,351.2 279.8,272.5 279.9,272.5 			"/>
			<polygon class="st8" points="416.2,36.2 386,102.9 280.5,114.9 279.9,114.9 279.8,114.9 416.1,36.2 			"/>
			<polygon class="st9" points="386,102.9 359.6,161.1 280.6,115.6 280.5,114.9 			"/>
			<polygon class="st10" points="348.6,258 348.6,258 280.1,271.9 279.7,271.9 279.7,114.9 279.8,114.9 279.9,114.9 280.5,114.9 
				280.6,115.6 			"/>
		</g>
	</g>
</g>
<g>
	<text transform="matrix(0.9169 0 0 1 348 231.2)" class="st11 st12 st13">E A</text>
	<text transform="matrix(0.9169 0 0 1 348 231.2)" class="st14 st12 st13">E A</text>
</g>
</svg>
