<svg id="Layer_1" data-name="Layer 1" xmlns="http://www.w3.org/2000/svg" viewBox="0 0 272.8 315"><defs><style>.cls-1{fill:#597351;}.cls-2{fill:#2c3928;}.cls-3{fill:#a5adbf;}.cls-4{fill:#687794;}.cls-5{fill:#71666c;}.cls-6{fill:#6f5965;}.cls-7{fill:#a998a1;}.cls-8{fill:#d4d1c9;}.cls-9{fill:#6f6959;}.cls-10{fill:#4a463c;}.cls-11{fill:#4a3c44;}.cls-12,.cls-13{isolation:isolate;font-size:48px;font-family:Avenir;}.cls-12{fill:#fff;}.cls-13{fill:none;stroke:#fff;stroke-miterlimit:10;}</style></defs><title>Logo_Full</title><g id="_Group_" data-name="&lt;Group&gt;"><polygon class="cls-1" points="272.8 236.2 272.8 236.3 169.7 236.3 0.2 236.3 0.1 236.3 0 236.3 0 235.7 0.4 235.7 68.9 221.8 201.5 195 272.8 236.2"/><polygon class="cls-2" points="272.8 180.6 272.8 236.2 201.5 195 201.9 194.9 272.8 180.6"/><polygon class="cls-3" points="272.8 79 272.8 180.6 201.9 194.9 201.9 194.5 272.8 79"/><polygon class="cls-4" points="272.8 78.8 272.8 79 201.9 194.5 201.9 194.9 201.5 195 79.9 124.9 189.6 98.7 272.8 78.8"/><polygon class="cls-5" points="272.8 78.7 272.8 78.8 189.6 98.7 189.5 98.5 136.8 0.3 136.8 0.2 272.8 78.7"/><polygon class="cls-3" points="272.8 236.3 136.7 314.9 136.7 314.8 169.7 236.3 272.8 236.3"/><polygon class="cls-6" points="201.5 195 68.9 221.8 68.9 221.8 0.9 79.4 79.9 124.9 201.5 195"/><polygon class="cls-7" points="106.3 66.7 136.5 0 136.8 0.2 136.8 0.3 189.5 98.5 189.6 98.7 79.9 124.9 106.3 66.7"/><polygon class="cls-8" points="169.7 236.3 136.7 314.8 136.7 314.9 136.4 315 0.1 236.3 0.2 236.3 169.7 236.3"/><polygon class="cls-9" points="136.5 0 106.3 66.7 0.8 78.7 0.2 78.7 0.1 78.7 136.4 0 136.5 0"/><polygon class="cls-10" points="106.3 66.7 79.9 124.9 0.9 79.4 0.8 78.7 106.3 66.7"/><polygon class="cls-11" points="68.9 221.8 68.9 221.8 0.4 235.7 0 235.7 0 78.7 0.1 78.7 0.2 78.7 0.8 78.7 0.9 79.4 68.9 221.8"/></g><text class="cls-12" transform="translate(13.74 172.43) scale(1.01 1)">E S E O S A</text><text class="cls-13" transform="translate(13.74 172.43) scale(1.01 1)">E S E O S A</text></svg>